<?xml version="1.0" encoding="UTF-8"?>
<svg xmlns="http://www.w3.org/2000/svg" id="Layer_1" data-name="Layer 1" viewBox="0 0 193.47 33.55"><defs><style>.cls-1{fill:#3b3b3b;}.cls-2{fill:#333;}</style></defs><title>logo-main</title><path class="cls-1" d="M18.83,32.68,3.66,19.78c.28,0,.43-.05.57-.05,1.61,0,3.23,0,4.84,0a1.6,1.6,0,0,1,.92.34q4.23,3.51,8.41,7.06c.36.31.57.27.91,0q5.14-4.37,10.3-8.7A1.41,1.41,0,0,0,30.23,17a1.79,1.79,0,0,1,0-.49c.07-.53-.15-.68-.67-.68q-12.59,0-25.18,0c-.82,0-.82,0-.82-.84s0-1.67,0-2.5c0-.35.11-.5.47-.48s.8,0,1.2,0h28c.79,0,.79,0,.79.81,0,2.08,0,4.17,0,6.25a1.31,1.31,0,0,1-.38.87Q26.35,26.29,19,32.52Z"/><path class="cls-1" d="M18.81,8.44c-4.87,0-9.75,0-14.62,0a.83.83,0,0,1-.89-.59C2.26,5.44,1.19,3,.12.6-.1.1,0,0,.52,0,2.33,0,4.14,0,6,0a.77.77,0,0,1,.79.51,6.56,6.56,0,0,0,6.42,4c.67,0,1.34,0,2,0,.43,0,.58-.15.57-.57,0-1.11,0-2.21,0-3.32,0-.45.16-.62.6-.62h4.84c.44,0,.6.17.59.62,0,1.1,0,2.21,0,3.32,0,.42.14.58.57.57,1.18,0,2.36,0,3.53-.1a6.18,6.18,0,0,0,4.09-2.64c.34-.42.58-.92.92-1.34a1.07,1.07,0,0,1,.68-.4c1.85,0,3.7,0,5.55,0,.39,0,.53.12.36.53C36.35,3,35.29,5.45,34.26,7.92a.79.79,0,0,1-.87.53Q26.1,8.43,18.81,8.44Z"/><path class="cls-2" d="M53.88,27.26H49.44L54.36.54h5.7L65,27.26H60.54l-.81-5.92h-5Zm1.48-9.92h3.7L57.24,5.87h-.07Z"/><path class="cls-2" d="M74.56,7.35h4.22L74,27.26h-4L65.12,7.35h4.22L71.9,20.67H72Z"/><path class="cls-2" d="M80.7,13.2c.22-4,2.77-6.22,6.66-6.22s6,1.78,6,5.4V25.15a14.29,14.29,0,0,0,.26,2.11h-4c0-.55-.19-1.07-.22-1.55a7,7,0,0,1-4.85,1.92c-2.81,0-4.22-1.92-4.22-4.48,0-4.37,2.89-6.77,8.84-9V12.94c0-1.67-.67-2.55-2-2.55-1.89,0-2.29,1.11-2.37,2.81Zm8.55,4c-3.77,2.15-4.7,3.52-4.7,5.25,0,1.29.67,1.81,1.92,1.81a3.64,3.64,0,0,0,2.77-1.85Z"/><path class="cls-2" d="M97.61,27.26V.54h4.14V27.26Z"/><path class="cls-2" d="M105.56,14.38c0-4.37,1.7-7.4,6.44-7.4s6.44,3,6.44,7.4v5.85c0,4.37-1.7,7.4-6.44,7.4s-6.44-3-6.44-7.4Zm8.73-.74c0-2.29-.81-3.26-2.29-3.26s-2.29,1-2.29,3.26V21c0,2.29.81,3.26,2.29,3.26s2.29-1,2.29-3.26Z"/><path class="cls-2" d="M122.21,27.26V7.35h3.92v2c1.74-1.48,2.63-2.37,5-2.37,2.18,0,3.48,1.59,3.48,4.18v16.1H130.5V11.83A1.32,1.32,0,0,0,129,10.38a4.86,4.86,0,0,0-2.66,1.26V27.26Z"/><path class="cls-2" d="M138.64,27.26V.54h4.59v9.88h.07L148.11.54h4.59l-5,10,5.59,16.76h-4.66l-3.74-12.43h-.07l-1.63,3v9.47Z"/><path class="cls-2" d="M155.1,4.32V.54h4.14V4.32Zm0,22.94V7.35h4.14V27.26Z"/><path class="cls-2" d="M163.28,27.26V7.35h3.92v2c1.74-1.48,2.63-2.37,5-2.37,2.18,0,3.48,1.59,3.48,4.18v16.1h-4.14V11.83a1.32,1.32,0,0,0-1.48-1.44,4.86,4.86,0,0,0-2.66,1.26V27.26Z"/><path class="cls-2" d="M193.47,10.42a4,4,0,0,0-.67,0,3,3,0,0,0-2,.63,12.84,12.84,0,0,1,.44,3.15c0,6.07-2.07,8-6.29,8h-1.33a1,1,0,0,0-.81.92c0,2.7,10.66-1.29,10.66,5.74,0,3.4-3.18,4.74-8.51,4.74-4.14,0-6.59-1.11-6.59-3.18a3.34,3.34,0,0,1,2.7-3.11v-.07a2.62,2.62,0,0,1-1.89-2.52c0-1.37,1.41-2.59,2.52-3.22C179.64,20,179,19,179,14.31,179,8.83,180.82,7,185.48,7a5.71,5.71,0,0,1,4.59,2.15C191.18,7.5,191.74,7,193.47,7Zm-3.7,18.69c0-1-.74-1.48-3.51-1.48s-3.52.44-3.52,1.48.74,1.48,3.52,1.48S189.77,30.14,189.77,29.11Zm-2.66-14.54c0-3.37-.44-4.18-2.07-4.18-1.33,0-2.07.81-2.07,4.18s.74,4.18,2.07,4.18C186.67,18.75,187.11,17.93,187.11,14.56Z"/></svg>